<svg width="23" height="24" viewBox="0 0 23 24" fill="none" xmlns="http://www.w3.org/2000/svg">
<g id="Layer_2" clip-path="url(#clip0_1387_4019)">
<g id="Vector">
<path d="M11.4065 0.651794C5.11672 0.651794 0 5.76852 0 12.0583C0 18.3481 5.11672 23.4649 11.4065 23.4649C13.0841 23.4649 14.6756 23.0985 16.1109 22.4459L12.96 19.295C12.4595 19.4031 11.941 19.4612 11.4085 19.4612C7.32677 19.4612 4.0057 16.1401 4.0057 12.0583C4.0057 7.97656 7.32476 4.65549 11.4065 4.65549C15.4883 4.65549 18.8094 7.97656 18.8094 12.0583C18.8094 13.3735 18.461 14.6067 17.8585 15.6777L12.8238 10.643L9.99323 13.4736L15.0299 18.5103L17.9286 21.409C20.8793 19.3451 22.8151 15.9259 22.8151 12.0583C22.8131 5.76852 17.6963 0.651794 11.4065 0.651794Z" fill="#386AEA"/>
<path d="M11.4065 0.651794C5.11672 0.651794 0 5.76852 0 12.0583C0 18.3481 5.11672 23.4649 11.4065 23.4649C13.0841 23.4649 14.6756 23.0985 16.1109 22.4459L12.96 19.295C12.4595 19.4031 11.941 19.4612 11.4085 19.4612C7.32677 19.4612 4.0057 16.1401 4.0057 12.0583C4.0057 7.97656 7.32476 4.65549 11.4065 4.65549C15.4883 4.65549 18.8094 7.97656 18.8094 12.0583C18.8094 13.3735 18.461 14.6067 17.8585 15.6777L12.8238 10.643L9.99323 13.4736L15.0299 18.5103L17.9286 21.409C20.8793 19.3451 22.8151 15.9259 22.8151 12.0583C22.8131 5.76852 17.6963 0.651794 11.4065 0.651794Z" fill="url(#paint0_radial_1387_4019)"/>
</g>
</g>
<defs>
<radialGradient id="paint0_radial_1387_4019" cx="0" cy="0" r="1" gradientUnits="userSpaceOnUse" gradientTransform="translate(22.8151 0.651793) rotate(114.32) scale(42.9344 42.9369)">
<stop stop-color="#2DB3FF"/>
<stop offset="1" stop-color="#2DB3FF" stop-opacity="0"/>
</radialGradient>
<clipPath id="clip0_1387_4019">
<rect width="22.8131" height="22.8111" fill="white" transform="translate(0 0.651794)"/>
</clipPath>
</defs>
</svg>
