<svg width="1920" height="562" viewBox="0 0 1920 562" fill="none" xmlns="http://www.w3.org/2000/svg">
<path d="M1244.46 8.80566H1387.24L1578.46 475.518H1586.01L1777.22 8.80566H1920V652.894H1808.04V210.398H1802.06L1624.06 651.007H1540.4L1362.4 209.454H1356.42V652.894H1244.46V8.80566Z" fill="#E9EFFF"/>
<path d="M674.516 652.895V8.80664H916.049C965.529 8.80664 1007.04 18.0319 1040.59 36.4823C1074.35 54.9328 1099.82 80.3022 1117.01 112.59C1134.41 144.669 1143.12 181.151 1143.12 222.035C1143.12 263.339 1134.41 300.03 1117.01 332.109C1099.61 364.188 1073.93 389.452 1039.96 407.903C1005.99 426.143 964.167 435.264 914.476 435.264H754.398V339.342H898.751C927.685 339.342 951.377 334.31 969.828 324.247C988.278 314.183 1001.91 300.345 1010.71 282.733C1019.73 265.121 1024.24 244.889 1024.24 222.035C1024.24 199.182 1019.73 179.054 1010.71 161.652C1001.91 144.25 988.173 130.726 969.513 121.082C951.063 111.228 927.266 106.301 898.122 106.301H791.194V652.895H674.516Z" fill="#E9EFFF"/>
<path d="M567.666 226.123H450.044C446.69 206.834 440.505 189.746 431.489 174.86C422.473 159.764 411.256 146.975 397.838 136.491C384.419 126.008 369.114 118.146 351.921 112.904C334.939 107.453 316.593 104.727 296.885 104.727C261.871 104.727 230.84 113.533 203.794 131.145C176.747 148.547 155.571 174.126 140.265 207.882C124.96 241.428 117.307 282.418 117.307 330.85C117.307 380.121 124.96 421.635 140.265 455.391C155.781 488.937 176.957 514.306 203.794 531.499C230.84 548.482 261.766 556.973 296.57 556.973C315.859 556.973 333.89 554.457 350.663 549.425C367.646 544.183 382.847 536.531 396.265 526.467C409.894 516.403 421.32 504.033 430.545 489.356C439.98 474.68 446.48 457.907 450.044 439.037L567.666 439.666C563.263 470.277 553.723 499.001 539.047 525.838C524.58 552.675 505.605 576.367 482.123 596.914C458.641 617.252 431.174 633.186 399.725 644.717C368.275 656.039 333.366 661.7 294.998 661.7C238.388 661.7 187.859 648.596 143.41 622.388C98.9615 596.18 63.9476 558.336 38.3686 508.855C12.7895 459.374 0 400.039 0 330.85C0 261.451 12.8943 202.116 38.683 152.845C64.4717 103.365 99.5905 65.5201 144.039 39.312C188.488 13.104 238.808 0 294.998 0C330.85 0 364.187 5.03194 395.007 15.0958C425.828 25.1597 453.294 39.9411 477.406 59.4398C501.517 78.7289 521.33 102.421 536.845 130.516C552.57 158.401 562.844 190.27 567.666 226.123Z" fill="#E9EFFF"/>
</svg>
