<svg width="44" height="44" viewBox="0 0 44 44" fill="none" xmlns="http://www.w3.org/2000/svg">
<circle cx="22" cy="22" r="22" fill="#1B1C1F"/>
<path fill-rule="evenodd" clip-rule="evenodd" d="M21.9997 26.5014C21.9997 24.2913 23.7913 22.4997 26.0014 22.4997C23.7913 22.4997 21.9997 20.7081 21.9997 18.498C21.9997 20.7081 20.2081 22.4997 17.998 22.4997C20.2081 22.4997 21.9997 24.2913 21.9997 26.5014Z" stroke="#9094A3" stroke-width="1.5" stroke-linecap="round" stroke-linejoin="round"/>
<path fill-rule="evenodd" clip-rule="evenodd" d="M28.9397 18.5591C28.9397 16.9016 30.2834 15.5579 31.941 15.5579C30.2834 15.5579 28.9397 14.2142 28.9397 12.5566C28.9397 14.2142 27.596 15.5579 25.9385 15.5579C26.7345 15.5579 27.4978 15.8741 28.0607 16.4369C28.6235 16.9998 28.9397 17.7632 28.9397 18.5591V18.5591Z" stroke="#9094A3" stroke-width="1.5" stroke-linecap="round" stroke-linejoin="round"/>
<path d="M31.0036 21.4994V27.5019C31.0036 29.712 29.212 31.5036 27.0019 31.5036H16.9978C14.7877 31.5036 12.9961 29.712 12.9961 27.5019V17.4978C12.9961 15.2877 14.7877 13.4961 16.9978 13.4961H23.0003" stroke="#9094A3" stroke-width="1.5" stroke-linecap="round" stroke-linejoin="round"/>
</svg>
