<svg width="120" height="36" viewBox="0 0 120 36" fill="none" xmlns="http://www.w3.org/2000/svg">
<g clip-path="url(#clip0_5625_27066)">
<path d="M20.4065 6.65234C14.1167 6.65234 9 11.7691 9 18.0589C9 24.3487 14.1167 29.4654 20.4065 29.4654C22.0841 29.4654 23.6756 29.0991 25.1109 28.4465L21.96 25.2956C21.4595 25.4037 20.941 25.4617 20.4085 25.4617C16.3268 25.4617 13.0057 22.1406 13.0057 18.0589C13.0057 13.9771 16.3248 10.656 20.4065 10.656C24.4883 10.656 27.8094 13.9771 27.8094 18.0589C27.8094 19.3741 27.461 20.6072 26.8585 21.6782L21.8238 16.6436L18.9932 19.4742L24.0299 24.5108L26.9286 27.4095C29.8793 25.3456 31.8151 21.9264 31.8151 18.0589C31.8131 11.7691 26.6963 6.65234 20.4065 6.65234Z" fill="#386AEA"/>
<path d="M20.4065 6.65234C14.1167 6.65234 9 11.7691 9 18.0589C9 24.3487 14.1167 29.4654 20.4065 29.4654C22.0841 29.4654 23.6756 29.0991 25.1109 28.4465L21.96 25.2956C21.4595 25.4037 20.941 25.4617 20.4085 25.4617C16.3268 25.4617 13.0057 22.1406 13.0057 18.0589C13.0057 13.9771 16.3248 10.656 20.4065 10.656C24.4883 10.656 27.8094 13.9771 27.8094 18.0589C27.8094 19.3741 27.461 20.6072 26.8585 21.6782L21.8238 16.6436L18.9932 19.4742L24.0299 24.5108L26.9286 27.4095C29.8793 25.3456 31.8151 21.9264 31.8151 18.0589C31.8131 11.7691 26.6963 6.65234 20.4065 6.65234Z" fill="url(#paint0_radial_5625_27066)"/>
</g>
<g clip-path="url(#clip1_5625_27066)">
<path d="M45.0008 24.2549C44.3165 24.646 43.3617 24.9882 42.1658 24.9882C38.9918 24.9882 36.375 22.5702 36.375 18.8781C36.375 15.1859 39.0863 12.4258 42.8012 12.4258C43.9483 12.4258 45.0237 12.6963 46.0013 13.1851L48.7614 12.6963V30.0978H45.0465V24.281L44.9976 24.2582L45.0008 24.2549ZM45.0497 15.9941C44.512 15.7497 43.8277 15.5313 43.0945 15.5313C41.1621 15.5313 40.1128 16.9978 40.1128 18.7803C40.1128 20.5628 41.1393 21.9804 43.0195 21.9804C43.7267 21.9804 44.486 21.7588 45.0465 21.3677V15.9908L45.0497 15.9941Z" fill="white"/>
<path d="M51.2347 12.6974H54.8747V14.3105L54.9236 14.3366C55.7546 13.1634 56.9277 12.5508 58.4169 12.5508C58.6613 12.5508 58.9285 12.5769 59.199 12.6485V16.1419C58.9057 16.0669 58.5375 16.0181 58.1953 16.0181C56.8984 16.0181 55.8262 16.4091 54.9464 17.4356V24.7189H51.2314V12.6974H51.2347Z" fill="white"/>
<path d="M66.2416 12.4258C70.0771 12.4258 72.9383 15.1631 72.9383 18.7053C72.9383 22.2476 70.0804 24.9849 66.2416 24.9849C62.4028 24.9849 59.5449 22.2476 59.5449 18.7053C59.5449 15.1631 62.4028 12.4258 66.2416 12.4258ZM66.2416 21.7848C67.9264 21.7848 69.2233 20.4162 69.2233 18.7053C69.2233 16.9945 67.9296 15.6258 66.2416 15.6258C64.5536 15.6258 63.2599 16.9945 63.2599 18.7053C63.2599 20.4162 64.5568 21.7848 66.2416 21.7848Z" fill="white"/>
<path d="M80.5863 12.4258C84.4218 12.4258 87.283 15.1631 87.283 18.7053C87.283 22.2476 84.4218 24.9849 80.5863 24.9849C76.7508 24.9849 73.8896 22.2476 73.8896 18.7053C73.8896 15.1631 76.7475 12.4258 80.5863 12.4258ZM80.5863 21.7848C82.2711 21.7848 83.5681 20.4162 83.5681 18.7053C83.5681 16.9945 82.2743 15.6258 80.5863 15.6258C78.8983 15.6258 77.6046 16.9945 77.6046 18.7053C77.6046 20.4162 78.8983 21.7848 80.5863 21.7848Z" fill="white"/>
<path d="M96.7921 24.3311C96.2283 24.696 95.1301 24.9926 94.0776 24.9926C92.8556 24.9926 91.7085 24.6015 90.9492 23.7934C90.3138 23.109 89.8966 22.1086 89.8966 20.2023V15.7802H87.9414V12.7007H89.8966V9.56904L93.6116 8.93359V12.6974H96.7888V15.7769H93.6116V19.808C93.6116 20.9811 93.8788 21.8609 95.0031 21.8609C95.6157 21.8609 96.3 21.6165 96.7888 21.3721V24.3278L96.7921 24.3311Z" fill="white"/>
<path d="M104.147 12.4258C107.982 12.4258 110.844 15.1631 110.844 18.7053C110.844 22.2476 107.982 24.9849 104.147 24.9849C100.311 24.9849 97.4502 22.2476 97.4502 18.7053C97.4502 15.1631 100.308 12.4258 104.147 12.4258ZM104.147 21.7848C105.832 21.7848 107.129 20.4162 107.129 18.7053C107.129 16.9945 105.832 15.6258 104.147 15.6258C102.462 15.6258 101.165 16.9945 101.165 18.7053C101.165 20.4162 102.462 21.7848 104.147 21.7848Z" fill="white"/>
</g>
<defs>
<radialGradient id="paint0_radial_5625_27066" cx="0" cy="0" r="1" gradientUnits="userSpaceOnUse" gradientTransform="translate(31.8151 6.65234) rotate(114.32) scale(42.9344 42.9369)">
<stop stop-color="#2DB3FF"/>
<stop offset="1" stop-color="#2DB3FF" stop-opacity="0"/>
</radialGradient>
<clipPath id="clip0_5625_27066">
<rect width="22.8131" height="22.8111" fill="white" transform="translate(9 6.65234)"/>
</clipPath>
<clipPath id="clip1_5625_27066">
<rect width="74.6248" height="24.1146" fill="white" transform="translate(36.375 6)"/>
</clipPath>
</defs>
</svg>
