<svg width="160" height="40" viewBox="0 0 160 40" fill="none" xmlns="http://www.w3.org/2000/svg">
<g clip-path="url(#clip0_5625_26878)">
<path d="M29.5377 5.83008C21.5213 5.83008 15 12.3514 15 20.3678C15 28.3842 21.5213 34.9056 29.5377 34.9056C31.6758 34.9056 33.7041 34.4387 35.5335 33.6069L31.5176 29.591C30.8798 29.7288 30.219 29.8028 29.5403 29.8028C24.338 29.8028 20.1053 25.5701 20.1053 20.3678C20.1053 15.1656 24.3355 10.9328 29.5377 10.9328C34.74 10.9328 38.9727 15.1656 38.9727 20.3678C38.9727 22.0441 38.5288 23.6157 37.7608 24.9807L31.3441 18.564L27.7365 22.1716L34.1557 28.5909L37.8501 32.2853C41.6108 29.6548 44.078 25.2971 44.078 20.3678C44.0755 12.3514 37.5542 5.83008 29.5377 5.83008Z" fill="#386AEA"/>
<path d="M29.5377 5.83008C21.5213 5.83008 15 12.3514 15 20.3678C15 28.3842 21.5213 34.9056 29.5377 34.9056C31.6758 34.9056 33.7041 34.4387 35.5335 33.6069L31.5176 29.591C30.8798 29.7288 30.219 29.8028 29.5403 29.8028C24.338 29.8028 20.1053 25.5701 20.1053 20.3678C20.1053 15.1656 24.3355 10.9328 29.5377 10.9328C34.74 10.9328 38.9727 15.1656 38.9727 20.3678C38.9727 22.0441 38.5288 23.6157 37.7608 24.9807L31.3441 18.564L27.7365 22.1716L34.1557 28.5909L37.8501 32.2853C41.6108 29.6548 44.078 25.2971 44.078 20.3678C44.0755 12.3514 37.5542 5.83008 29.5377 5.83008Z" fill="url(#paint0_radial_5625_26878)"/>
</g>
<g clip-path="url(#clip1_5625_26878)">
<path d="M60.8834 28.2668C60.0112 28.7652 58.7943 29.2013 57.27 29.2013C53.2247 29.2013 49.8896 26.1196 49.8896 21.4139C49.8896 16.7083 53.3452 13.1904 58.0799 13.1904C59.5419 13.1904 60.9124 13.5352 62.1584 14.1581L65.6762 13.5352V35.7136H60.9415V28.3L60.8792 28.271L60.8834 28.2668ZM60.9457 17.7383C60.2604 17.4268 59.3882 17.1485 58.4537 17.1485C55.9908 17.1485 54.6535 19.0175 54.6535 21.2893C54.6535 23.5612 55.9617 25.3678 58.3582 25.3678C59.2594 25.3678 60.2271 25.0854 60.9415 24.587V17.7341L60.9457 17.7383Z" fill="#2E2E2E"/>
<path d="M68.8284 13.5355H73.4676V15.5914L73.5299 15.6246C74.589 14.1294 76.0841 13.3486 77.9822 13.3486C78.2937 13.3486 78.6343 13.3819 78.979 13.4732V17.9255C78.6052 17.83 78.1359 17.7677 77.6998 17.7677C76.0468 17.7677 74.6803 18.2661 73.559 19.5744V28.857H68.8242V13.5355H68.8284Z" fill="#2E2E2E"/>
<path d="M87.9549 13.1904C92.8433 13.1904 96.4899 16.6792 96.4899 21.1938C96.4899 25.7084 92.8475 29.1971 87.9549 29.1971C83.0623 29.1971 79.4199 25.7084 79.4199 21.1938C79.4199 16.6792 83.0623 13.1904 87.9549 13.1904ZM87.9549 25.1186C90.1021 25.1186 91.7551 23.3743 91.7551 21.1938C91.7551 19.0133 90.1063 17.2689 87.9549 17.2689C85.8035 17.2689 84.1547 19.0133 84.1547 21.1938C84.1547 23.3743 85.8077 25.1186 87.9549 25.1186Z" fill="#2E2E2E"/>
<path d="M106.237 13.1904C111.126 13.1904 114.772 16.6792 114.772 21.1938C114.772 25.7084 111.126 29.1971 106.237 29.1971C101.349 29.1971 97.7021 25.7084 97.7021 21.1938C97.7021 16.6792 101.345 13.1904 106.237 13.1904ZM106.237 25.1186C108.384 25.1186 110.037 23.3743 110.037 21.1938C110.037 19.0133 108.389 17.2689 106.237 17.2689C104.086 17.2689 102.437 19.0133 102.437 21.1938C102.437 23.3743 104.086 25.1186 106.237 25.1186Z" fill="#2E2E2E"/>
<path d="M126.892 28.3625C126.173 28.8277 124.773 29.2056 123.432 29.2056C121.874 29.2056 120.413 28.7072 119.445 27.6772C118.635 26.805 118.103 25.53 118.103 23.1003V17.4643H115.611V13.5395H118.103V9.54817L122.838 8.73828V13.5353H126.887V17.4602H122.838V22.5978C122.838 24.0929 123.179 25.2143 124.611 25.2143C125.392 25.2143 126.264 24.9028 126.887 24.5913V28.3583L126.892 28.3625Z" fill="#2E2E2E"/>
<path d="M136.265 13.1904C141.154 13.1904 144.8 16.6792 144.8 21.1938C144.8 25.7084 141.154 29.1971 136.265 29.1971C131.377 29.1971 127.73 25.7084 127.73 21.1938C127.73 16.6792 131.373 13.1904 136.265 13.1904ZM136.265 25.1186C138.413 25.1186 140.066 23.3743 140.066 21.1938C140.066 19.0133 138.413 17.2689 136.265 17.2689C134.118 17.2689 132.465 19.0133 132.465 21.1938C132.465 23.3743 134.118 25.1186 136.265 25.1186Z" fill="#2E2E2E"/>
</g>
<defs>
<radialGradient id="paint0_radial_5625_26878" cx="0" cy="0" r="1" gradientUnits="userSpaceOnUse" gradientTransform="translate(44.078 5.83008) rotate(114.32) scale(54.7203 54.7235)">
<stop stop-color="#2DB3FF"/>
<stop offset="1" stop-color="#2DB3FF" stop-opacity="0"/>
</radialGradient>
<clipPath id="clip0_5625_26878">
<rect width="29.0755" height="29.0729" fill="white" transform="translate(15 5.83008)"/>
</clipPath>
<clipPath id="clip1_5625_26878">
<rect width="95.11" height="30.7342" fill="white" transform="translate(49.8896 5)"/>
</clipPath>
</defs>
</svg>
